<svg viewBox="0 0 600 600" xmlns="http://www.w3.org/2000/svg" role="img" aria-label="Flat illustration of a molecule above a mass spectrum">
  <rect width="600" height="600" fill="#15776B"/>
  <circle cx="300" cy="300" r="232" fill="#1C8C7C"/>

  <g stroke="#EAF7F3" stroke-width="9" stroke-linecap="round" stroke-linejoin="round" fill="none">
    <polygon points="300,150 378,195 378,285 300,330 222,285 222,195"/>
    <line x1="300" y1="150" x2="300" y2="92"/>
    <line x1="378" y1="195" x2="430" y2="165"/>
    <line x1="222" y1="285" x2="170" y2="315"/>
  </g>

  <g fill="#EAF7F3">
    <circle cx="300" cy="150" r="15"/>
    <circle cx="378" cy="195" r="15"/>
    <circle cx="378" cy="285" r="15"/>
    <circle cx="222" cy="195" r="15"/>
    <circle cx="170" cy="315" r="15"/>
  </g>
  <g fill="#F2B441">
    <circle cx="300" cy="330" r="15"/>
    <circle cx="222" cy="285" r="15"/>
    <circle cx="300" cy="92" r="17"/>
    <circle cx="430" cy="165" r="15"/>
  </g>

  <g stroke="#EAF7F3" stroke-width="10" stroke-linecap="round">
    <line x1="170" y1="470" x2="170" y2="432"/>
    <line x1="200" y1="470" x2="200" y2="392"/>
    <line x1="230" y1="470" x2="230" y2="448"/>
    <line x1="260" y1="470" x2="260" y2="368"/>
    <line x1="290" y1="470" x2="290" y2="420"/>
    <line x1="350" y1="470" x2="350" y2="436"/>
    <line x1="380" y1="470" x2="380" y2="388"/>
    <line x1="410" y1="470" x2="410" y2="424"/>
    <line x1="440" y1="470" x2="440" y2="450"/>
  </g>
  <line x1="320" y1="470" x2="320" y2="352" stroke="#F2B441" stroke-width="10" stroke-linecap="round"/>
  <line x1="150" y1="470" x2="458" y2="470" stroke="#EAF7F3" stroke-width="7" stroke-linecap="round"/>
</svg>
